<svg xmlns="http://www.w3.org/2000/svg" viewBox="0 0 1024 1024" role="img" aria-labelledby="title desc">
  <title id="title">Cute turtle app icon</title>
  <desc id="desc">A simple friendly green turtle mascot icon.</desc>
  <defs>
    <linearGradient id="bg" x1="120" y1="92" x2="900" y2="940" gradientUnits="userSpaceOnUse">
      <stop offset="0" stop-color="#EFFFE7"/>
      <stop offset="1" stop-color="#D9FFC8"/>
    </linearGradient>
    <linearGradient id="skin" x1="280" y1="180" x2="750" y2="820" gradientUnits="userSpaceOnUse">
      <stop offset="0" stop-color="#82E60B"/>
      <stop offset="1" stop-color="#5FCB06"/>
    </linearGradient>
    <filter id="shadow" x="-20%" y="-20%" width="140%" height="140%">
      <feDropShadow dx="0" dy="30" stdDeviation="24" flood-color="#07592A" flood-opacity=".18"/>
    </filter>
  </defs>
  <rect x="52" y="52" width="920" height="920" rx="218" fill="url(#bg)"/>
  <path d="M52 52h920L52 972z" fill="#ffffff" opacity=".18"/>
  <g transform="translate(512 512) scale(0.8) translate(-512 -512)">
    <ellipse cx="512" cy="835" rx="260" ry="48" fill="#0A3D1E" opacity=".12"/>
    <g filter="url(#shadow)">
      <ellipse cx="512" cy="606" rx="272" ry="286" fill="#0A7A35"/>
      <ellipse cx="512" cy="603" rx="220" ry="246" fill="#0E8F3B" opacity=".28"/>
      <ellipse cx="512" cy="610" rx="178" ry="226" fill="url(#skin)"/>
      <ellipse cx="512" cy="625" rx="138" ry="190" fill="#D7FF62"/>
      <ellipse cx="318" cy="646" rx="73" ry="118" fill="url(#skin)" transform="rotate(28 318 646)"/>
      <ellipse cx="706" cy="646" rx="73" ry="118" fill="url(#skin)" transform="rotate(-28 706 646)"/>
      <ellipse cx="404" cy="794" rx="78" ry="76" fill="url(#skin)"/>
      <ellipse cx="620" cy="794" rx="78" ry="76" fill="url(#skin)"/>
      <ellipse cx="512" cy="388" rx="274" ry="238" fill="url(#skin)"/>
      <circle cx="512" cy="164" r="64" fill="#75D90D"/>
      <path d="M347 300c24-24 52-26 74-7" fill="none" stroke="#0A7A35" stroke-width="20" stroke-linecap="round" opacity=".9"/>
      <path d="M603 293c22-18 50-16 74 7" fill="none" stroke="#0A7A35" stroke-width="20" stroke-linecap="round" opacity=".9"/>
      <ellipse cx="374" cy="386" rx="79" ry="88" fill="#FFFFFF"/>
      <ellipse cx="650" cy="386" rx="79" ry="88" fill="#FFFFFF"/>
      <circle cx="385" cy="401" r="51" fill="#202124"/>
      <circle cx="639" cy="401" r="51" fill="#202124"/>
      <circle cx="363" cy="367" r="18" fill="#FFFFFF"/>
      <circle cx="617" cy="367" r="18" fill="#FFFFFF"/>
      <ellipse cx="322" cy="496" rx="48" ry="28" fill="#C9F55A" opacity=".88"/>
      <ellipse cx="702" cy="496" rx="48" ry="28" fill="#C9F55A" opacity=".88"/>
      <circle cx="482" cy="454" r="10" fill="#0A7A35"/>
      <circle cx="542" cy="454" r="10" fill="#0A7A35"/>
      <path d="M454 502c24 52 91 52 116 0 3-7-2-15-10-15H464c-8 0-13 8-10 15Z" fill="#11651F"/>
      <path d="M480 534c20 20 48 20 64 0-10-18-53-20-64 0Z" fill="#FF5E6D"/>
      <g fill="#C9F55A" opacity=".9">
        <ellipse cx="374" cy="846" rx="17" ry="30"/>
        <ellipse cx="411" cy="850" rx="17" ry="31"/>
        <ellipse cx="448" cy="846" rx="17" ry="30"/>
        <ellipse cx="576" cy="846" rx="17" ry="30"/>
        <ellipse cx="613" cy="850" rx="17" ry="31"/>
        <ellipse cx="650" cy="846" rx="17" ry="30"/>
      </g>
    </g>
  </g>
</svg>