<svg xmlns="http://www.w3.org/2000/svg" viewBox="0 0 1024 1024">
  <path fill="#000" d="M512 116c80 0 151 33 203 86 63 1 126 28 176 82 84 91 111 228 65 362-32 92-91 153-158 183-44 65-147 93-286 93s-242-28-286-93c-67-30-126-91-158-183-46-134-19-271 65-362 50-54 113-81 176-82 52-53 123-86 203-86Zm-3 178c-124 0-224 81-224 181s100 181 224 181 224-81 224-181-100-181-224-181Zm-161 201c35 0 63-28 63-63s-28-63-63-63-63 28-63 63 28 63 63 63Zm326 0c35 0 63-28 63-63s-28-63-63-63-63 28-63 63 28 63 63 63Z"/>
</svg>